/* XPM */
static const char * callon_xpm[] = {
"16 16 62 1",
" 	c #FFFFFF",
".	c #F6F4F4",
"+	c #E6E1E1",
"@	c #B29F9F",
"#	c #8E6A6A",
"$	c #875E5E",
"%	c #825454",
"&	c #7E4D4D",
"*	c #815353",
"=	c #773C3C",
"-	c #7B4646",
";	c #A89292",
">	c #783D3D",
",	c #702525",
"'	c #AD9999",
")	c #A58D8D",
"!	c #A99494",
"~	c #712929",
"{	c #8A6464",
"]	c #8F6C6C",
"^	c #AC9797",
"/	c #B8A8A8",
"(	c #AA9595",
"_	c #825555",
":	c #C2B4B4",
"<	c #DED7D7",
"[	c #733030",
"}	c #732E2E",
"|	c #CABEBE",
"1	c #9C8181",
"2	c #BCADAD",
"3	c #743333",
"4	c #712828",
"5	c #773B3B",
"6	c #794141",
"7	c #712727",
"8	c #C3B6B6",
"9	c #732F2F",
"0	c #712626",
"a	c #A08787",
"b	c #702626",
"c	c #7A4444",
"d	c #CFC5C5",
"e	c #EDE9E9",
"f	c #AC9898",
"g	c #722D2D",
"h	c #7B4545",
"i	c #865D5D",
"j	c #957575",
"k	c #997B7B",
"l	c #A79090",
"m	c #A79191",
"n	c #B2A0A0",
"o	c #7A4343",
"p	c #763838",
"q	c #D5CCCC",
"r	c #B6A5A5",
"s	c #B8A7A7",
"t	c #A08686",
"u	c #8B6565",
"v	c #927171",
"w	c #9F8484",
"         ...    ",
"  +@#$%%&*=-;   ",
" +>,,,,,,,,,,'  ",
" ),,,,,,,,,,,@  ",
" !,,~{]^/(_,~:  ",
" <[,}|.   .12   ",
" <3,4|     .    ",
" +5,4|          ",
" +6,78          ",
" <9,02          ",
".ab,cd....ef    ",
" (,,ghijkl5,m   ",
" n,,,,,,,b,,-.  ",
" +o,b,,,,,,,pq  ",
"  +'r)stu]vwq   ",
"    .   .       "};
